<svg width="50" height="50" viewBox="0 0 50 50" fill="none" xmlns="http://www.w3.org/2000/svg">
<path d="M6.25 10.4167V39.5833C6.25 40.6884 6.68899 41.7482 7.47039 42.5296C8.25179 43.311 9.3116 43.75 10.4167 43.75H39.5833C41.875 43.75 43.75 41.875 43.75 39.5833V10.4167C43.75 8.125 41.875 6.25 39.5833 6.25H10.4167C9.3116 6.25 8.25179 6.68899 7.47039 7.47039C6.68899 8.25179 6.25 9.3116 6.25 10.4167ZM31.25 18.75C31.25 22.2083 28.4583 25 25 25C21.5417 25 18.75 22.2083 18.75 18.75C18.75 15.2917 21.5417 12.5 25 12.5C28.4583 12.5 31.25 15.2917 31.25 18.75ZM12.5 35.4167C12.5 31.25 20.8333 28.9583 25 28.9583C29.1667 28.9583 37.5 31.25 37.5 35.4167V37.5H12.5V35.4167Z" fill="black"/>
</svg>
