<svg width="55" height="55" viewBox="0 0 55 55" fill="none" xmlns="http://www.w3.org/2000/svg">
<path d="M49.6719 20.7109C48.464 17.852 46.7129 15.2545 44.5156 13.0625C42.3236 10.8652 39.7262 9.11412 36.8672 7.90625C33.897 6.64941 30.7495 6.01562 27.5 6.01562C24.2505 6.01562 21.103 6.64941 18.1328 7.90625C15.2738 9.11412 12.6764 10.8652 10.4844 13.0625C8.28711 15.2545 6.536 17.852 5.32812 20.7109C4.07129 23.6812 3.4375 26.8286 3.4375 30.0781C3.4375 37.2056 6.56885 43.9194 12.0259 48.5063L12.1172 48.5815C12.4287 48.8394 12.8208 48.9844 13.2236 48.9844H41.7817C42.1846 48.9844 42.5767 48.8394 42.8882 48.5815L42.9795 48.5063C48.4312 43.9194 51.5625 37.2056 51.5625 30.0781C51.5625 26.8286 50.9233 23.6812 49.6719 20.7109ZM25.8887 12.4609C25.8887 12.2246 26.082 12.0312 26.3184 12.0312H28.6816C28.918 12.0312 29.1113 12.2246 29.1113 12.4609V16.7578C29.1113 16.9941 28.918 17.1875 28.6816 17.1875H26.3184C26.082 17.1875 25.8887 16.9941 25.8887 16.7578V12.4609ZM14.502 31.2598C14.502 31.4961 14.3086 31.6895 14.0723 31.6895H9.77539C9.53906 31.6895 9.3457 31.4961 9.3457 31.2598V28.8965C9.3457 28.6602 9.53906 28.4668 9.77539 28.4668H14.0723C14.3086 28.4668 14.502 28.6602 14.502 28.8965V31.2598ZM19.3735 20.2759L17.7031 21.9463C17.6224 22.0263 17.5133 22.0711 17.3997 22.0711C17.286 22.0711 17.1769 22.0263 17.0962 21.9463L14.0562 18.9062C13.9762 18.8255 13.9313 18.7164 13.9313 18.6028C13.9313 18.4891 13.9762 18.3801 14.0562 18.2993L15.7266 16.6289C15.8931 16.4624 16.167 16.4624 16.3335 16.6289L19.3735 19.6689C19.54 19.8355 19.54 20.1094 19.3735 20.2759ZM35.0088 24.7661L30.4702 29.3047C30.7388 30.3091 30.481 31.4209 29.6914 32.2104C29.4123 32.4901 29.0807 32.712 28.7158 32.8633C28.3508 33.0147 27.9596 33.0926 27.5645 33.0926C27.1693 33.0926 26.7781 33.0147 26.4131 32.8633C26.0482 32.712 25.7166 32.4901 25.4375 32.2104C25.1578 31.9313 24.936 31.5998 24.7846 31.2348C24.6332 30.8699 24.5553 30.4786 24.5553 30.0835C24.5553 29.6884 24.6332 29.2971 24.7846 28.9322C24.936 28.5672 25.1578 28.2357 25.4375 27.9565C25.8104 27.5825 26.2755 27.3135 26.7857 27.1767C27.296 27.04 27.8332 27.0403 28.3433 27.1777L32.8818 22.6392C33.0483 22.4727 33.3223 22.4727 33.4888 22.6392L35.0088 24.1592C35.1753 24.3257 35.1753 24.5942 35.0088 24.7661ZM37.3184 21.9517L35.6479 20.2812C35.568 20.2005 35.5231 20.0914 35.5231 19.9778C35.5231 19.8641 35.568 19.7551 35.6479 19.6743L38.688 16.6343C38.8545 16.4678 39.1284 16.4678 39.2949 16.6343L40.9653 18.3047C41.1318 18.4712 41.1318 18.7451 40.9653 18.9116L37.9253 21.9517C37.8445 22.0316 37.7355 22.0765 37.6218 22.0765C37.5082 22.0765 37.3991 22.0316 37.3184 21.9517ZM45.4395 31.2598C45.4395 31.4961 45.2461 31.6895 45.0098 31.6895H40.7129C40.4766 31.6895 40.2832 31.4961 40.2832 31.2598V28.8965C40.2832 28.6602 40.4766 28.4668 40.7129 28.4668H45.0098C45.2461 28.4668 45.4395 28.6602 45.4395 28.8965V31.2598Z" fill="black"/>
</svg>
