<svg width="34" height="42" viewBox="0 0 34 42" fill="none" xmlns="http://www.w3.org/2000/svg">
<path d="M2.41671 41.8333C1.86417 41.8333 1.33427 41.6138 0.943569 41.2231C0.552868 40.8324 0.333374 40.3025 0.333374 39.75V2.24996C0.333374 1.69743 0.552868 1.16752 0.943569 0.77682C1.33427 0.386119 1.86417 0.166626 2.41671 0.166626H31.5834C32.1359 0.166626 32.6658 0.386119 33.0565 0.77682C33.4472 1.16752 33.6667 1.69743 33.6667 2.24996V39.75C33.6667 40.3025 33.4472 40.8324 33.0565 41.2231C32.6658 41.6138 32.1359 41.8333 31.5834 41.8333H2.41671ZM23.25 29.3333L33.6667 21L23.25 12.6666V18.9166H10.75V23.0833H23.25V29.3333Z" fill="black"/>
</svg>
