<svg width="242" height="82" viewBox="0 0 242 82" fill="none" xmlns="http://www.w3.org/2000/svg">
<path d="M4 4H78V78H4V4Z" fill="#0092FF"/>
<path fill-rule="evenodd" clip-rule="evenodd" d="M0 0H82V82H0V0ZM3.80132 3.80132V78.1987H78.1987V3.80132H3.80132Z" fill="black"/>
<path d="M17.444 24.223V46.1068C17.444 48.7085 18.0966 50.668 19.4019 51.9853C20.739 53.3026 22.5856 53.9613 24.9414 53.9613C27.3292 53.9613 29.1757 53.3026 30.4809 51.9853C31.8181 50.668 32.4866 48.7085 32.4866 46.1068V24.223H37.9306V46.008C37.9306 48.8073 37.3417 51.1785 36.1637 53.1215C34.9858 55.0645 33.4099 56.5136 31.436 57.4686C29.4622 58.4237 27.2814 58.9012 24.8937 58.9012C22.506 58.9012 20.3252 58.4237 18.3513 57.4686C16.4093 56.5136 14.8653 55.0645 13.7192 53.1215C12.5731 51.1785 12 48.8073 12 46.008V24.223H17.444Z" fill="white"/>
<path d="M50.4628 35.3872C51.386 34.0699 52.6436 32.9996 54.2354 32.1762C55.859 31.32 57.6578 30.8919 59.6316 30.8919C61.9557 30.8919 64.0569 31.4682 65.9352 32.6208C67.8135 33.7735 69.2939 35.4201 70.3764 37.5607C71.4588 39.6684 72 42.089 72 44.8224C72 47.5559 71.4588 50.0093 70.3764 52.1829C69.2939 54.3235 67.7976 56.0031 65.8874 57.2216C64.0091 58.4072 61.9238 59 59.6316 59C57.5941 59 55.7794 58.5883 54.1876 57.765C52.6276 56.9417 51.386 55.8879 50.4628 54.6035V58.5554H45.0188V22H50.4628V35.3872ZM66.4605 44.8224C66.4605 42.9453 66.0785 41.3316 65.3144 39.9813C64.5821 38.5981 63.5952 37.5607 62.3536 36.8692C61.1438 36.1446 59.8386 35.7824 58.4378 35.7824C57.0688 35.7824 55.7635 36.1446 54.5219 36.8692C53.3121 37.5937 52.3252 38.6475 51.5611 40.0307C50.8289 41.4139 50.4628 43.0441 50.4628 44.9212C50.4628 46.7984 50.8289 48.445 51.5611 49.8611C52.3252 51.2443 53.3121 52.2982 54.5219 53.0227C55.7635 53.7472 57.0688 54.1095 58.4378 54.1095C59.8386 54.1095 61.1438 53.7472 62.3536 53.0227C63.5952 52.2652 64.5821 51.1785 65.3144 49.7624C66.0785 48.3462 66.4605 46.6996 66.4605 44.8224Z" fill="white"/>
<path d="M113.852 25.5788V43.5561C113.852 45.5259 114.367 47.0378 115.398 48.0921C116.429 49.1185 117.878 49.6318 119.745 49.6318C121.64 49.6318 123.103 49.1185 124.134 48.0921C125.165 47.0378 125.68 45.5259 125.68 43.5561V25.5788H131.573V43.5145C131.573 45.9836 131.03 48.0782 129.943 49.7982C128.884 51.4905 127.449 52.7667 125.638 53.6267C123.855 54.4868 121.863 54.9168 119.661 54.9168C117.488 54.9168 115.509 54.4868 113.726 53.6267C111.971 52.7667 110.577 51.4905 109.546 49.7982C108.515 48.0782 108 45.9836 108 43.5145V25.5788H113.852Z" fill="black"/>
<path d="M150.059 31.2383C152.817 31.2383 155.046 32.1122 156.746 33.86C158.446 35.5801 159.296 37.9937 159.296 41.1009V54.6255H153.444V41.8916C153.444 40.0605 152.984 38.6595 152.065 37.6885C151.145 36.6898 149.891 36.1904 148.303 36.1904C146.687 36.1904 145.405 36.6898 144.458 37.6885C143.538 38.6595 143.079 40.0605 143.079 41.8916V54.6255H137.227V31.5712H143.079V34.4426C143.859 33.4439 144.848 32.6671 146.046 32.1122C147.272 31.5296 148.61 31.2383 150.059 31.2383Z" fill="black"/>
<path d="M167.828 28.8247C166.797 28.8247 165.933 28.5057 165.236 27.8676C164.568 27.2018 164.233 26.3834 164.233 25.4124C164.233 24.4414 164.568 23.6368 165.236 22.9987C165.933 22.3329 166.797 22 167.828 22C168.859 22 169.709 22.3329 170.377 22.9987C171.074 23.6368 171.422 24.4414 171.422 25.4124C171.422 26.3834 171.074 27.2018 170.377 27.8676C169.709 28.5057 168.859 28.8247 167.828 28.8247ZM170.712 31.5712V54.6255H164.86V31.5712H170.712Z" fill="black"/>
<path d="M193.045 39.7276C194.689 40.0328 196.04 40.8512 197.099 42.1828C198.158 43.5145 198.687 45.0404 198.687 46.7604C198.687 48.314 198.297 49.6873 197.517 50.8802C196.765 52.0454 195.664 52.9609 194.215 53.6267C192.766 54.2926 191.052 54.6255 189.074 54.6255H176.493V25.5788H188.531C190.509 25.5788 192.209 25.8979 193.63 26.5359C195.079 27.174 196.165 28.0618 196.89 29.1992C197.642 30.3367 198.018 31.6267 198.018 33.0694C198.018 34.7617 197.559 36.1765 196.639 37.314C195.747 38.4515 194.549 39.256 193.045 39.7276ZM182.345 37.5637H187.695C189.088 37.5637 190.161 37.2585 190.913 36.6482C191.665 36.0101 192.041 35.1084 192.041 33.9433C192.041 32.7781 191.665 31.8764 190.913 31.2383C190.161 30.6003 189.088 30.2812 187.695 30.2812H182.345V37.5637ZM188.238 49.8815C189.659 49.8815 190.76 49.5485 191.54 48.8827C192.348 48.2169 192.752 47.2736 192.752 46.053C192.752 44.8045 192.334 43.8335 191.498 43.14C190.662 42.4187 189.534 42.058 188.113 42.058H182.345V49.8815H188.238Z" fill="black"/>
<path d="M213.633 55C211.404 55 209.397 54.5145 207.614 53.5435C205.831 52.5448 204.424 51.1438 203.393 49.3405C202.389 47.5372 201.888 45.4565 201.888 43.0984C201.888 40.7402 202.403 38.6595 203.434 36.8562C204.493 35.053 205.928 33.6658 207.739 32.6948C209.551 31.6961 211.571 31.1967 213.8 31.1967C216.029 31.1967 218.049 31.6961 219.86 32.6948C221.672 33.6658 223.093 35.053 224.124 36.8562C225.183 38.6595 225.712 40.7402 225.712 43.0984C225.712 45.4565 225.169 47.5372 224.082 49.3405C223.023 51.1438 221.574 52.5448 219.735 53.5435C217.924 54.5145 215.89 55 213.633 55ZM213.633 49.9231C214.692 49.9231 215.681 49.6734 216.6 49.174C217.548 48.6469 218.3 47.8701 218.857 46.8436C219.415 45.8172 219.693 44.5687 219.693 43.0984C219.693 40.9067 219.108 39.2282 217.938 38.0631C216.795 36.8701 215.388 36.2736 213.716 36.2736C212.044 36.2736 210.637 36.8701 209.495 38.0631C208.38 39.2282 207.823 40.9067 207.823 43.0984C207.823 45.29 208.366 46.9823 209.453 48.1753C210.568 49.3405 211.961 49.9231 213.633 49.9231Z" fill="black"/>
<path d="M236.817 36.3569V47.5095C236.817 48.2863 236.998 48.855 237.361 49.2156C237.751 49.5485 238.392 49.715 239.283 49.715H242V54.6255H238.322C233.39 54.6255 230.924 52.2396 230.924 47.4678V36.3569H228.165V31.5712H230.924V25.8701H236.817V31.5712H242V36.3569H236.817Z" fill="black"/>
</svg>
